<svg width="9" height="9" viewBox="0 0 9 9" fill="none" xmlns="http://www.w3.org/2000/svg">
<path fill-rule="evenodd" clip-rule="evenodd" d="M1.29105 0.221531C0.995682 -0.0738331 0.516802 -0.0738334 0.221437 0.221531C-0.0739272 0.516896 -0.0739266 0.995776 0.221438 1.29114L2.6504 3.72011C3.08114 4.15085 3.08114 4.84921 2.6504 5.27995L0.2215 7.70886C-0.0738645 8.00422 -0.0738644 8.4831 0.2215 8.77846C0.516864 9.07383 0.995744 9.07383 1.29111 8.77846L3.72001 6.34956C4.15075 5.91882 4.84912 5.91882 5.27986 6.34956L7.7087 8.7784C8.00406 9.07377 8.48294 9.07377 8.77831 8.7784C9.07367 8.48304 9.07367 8.00416 8.77831 7.70879L6.34947 5.27995C5.91873 4.84921 5.91873 4.15085 6.34947 3.72011L8.77837 1.2912C9.07373 0.995838 9.07373 0.516958 8.77837 0.221594C8.48301 -0.0737709 8.00413 -0.0737706 7.70876 0.221594L5.27986 2.6505C4.84912 3.08124 4.15075 3.08124 3.72001 2.6505L1.29105 0.221531Z" fill="#FF8303"/>
</svg>
